<svg width="60" height="23" viewBox="0 0 60 23" fill="none" xmlns="http://www.w3.org/2000/svg">
<g clip-path="url(#clip0_44_4)">
<path d="M9.61 5H11.69V19H9.61V12.54H3.28V19H1.2V5H3.28V10.46H9.61V5ZM14.0906 9H16.1706V19H14.0906V9ZM15.1506 7.55C14.8306 7.55 14.564 7.44667 14.3506 7.24C14.1373 7.03333 14.0306 6.77333 14.0306 6.46C14.0306 6.15333 14.1373 5.89667 14.3506 5.69C14.564 5.47667 14.8273 5.37 15.1406 5.37C15.4473 5.37 15.7073 5.47667 15.9206 5.69C16.134 5.89667 16.2406 6.15333 16.2406 6.46C16.2406 6.77333 16.134 7.03333 15.9206 7.24C15.714 7.44667 15.4573 7.55 15.1506 7.55ZM18.4852 19V9H20.5652V10.06C20.9118 9.64667 21.3385 9.32 21.8452 9.08C22.3518 8.84 22.8985 8.72 23.4852 8.72C23.8585 8.72 24.2285 8.77 24.5952 8.87L23.7652 10.97C23.5052 10.87 23.2452 10.82 22.9852 10.82C22.5452 10.82 22.1418 10.93 21.7752 11.15C21.4085 11.3633 21.1152 11.6533 20.8952 12.02C20.6752 12.3867 20.5652 12.7933 20.5652 13.24V19H18.4852Z" fill="black"/>
<path d="M34.8289 12.73V19H32.7489V13.24C32.7489 12.7933 32.6389 12.3867 32.4189 12.02C32.2056 11.6533 31.9156 11.3633 31.5489 11.15C31.1889 10.93 30.7822 10.82 30.3289 10.82C29.8889 10.82 29.4856 10.93 29.1189 11.15C28.7522 11.3633 28.4589 11.6533 28.2389 12.02C28.0189 12.3867 27.9089 12.7933 27.9089 13.24V19H25.8289V9H27.9089V10.06C28.2556 9.64667 28.6822 9.32 29.1889 9.08C29.6956 8.84 30.2422 8.72 30.8289 8.72C31.5689 8.72 32.2422 8.9 32.8489 9.26C33.4556 9.62 33.9356 10.1033 34.2889 10.71C34.6489 11.3167 34.8289 11.99 34.8289 12.73ZM41.0297 19.26C40.1097 19.26 39.2697 19.0233 38.5097 18.55C37.7564 18.0767 37.153 17.4433 36.6997 16.65C36.253 15.85 36.0297 14.9667 36.0297 14C36.0297 13.2667 36.1597 12.5833 36.4197 11.95C36.6797 11.31 37.0364 10.75 37.4897 10.27C37.9497 9.78333 38.483 9.40333 39.0897 9.13C39.6964 8.85667 40.343 8.72 41.0297 8.72C41.7964 8.72 42.4997 8.88 43.1397 9.2C43.7797 9.51333 44.3264 9.95 44.7797 10.51C45.233 11.0633 45.5664 11.7033 45.7797 12.43C45.993 13.15 46.0564 13.9167 45.9697 14.73H38.2597C38.3464 15.19 38.513 15.6067 38.7597 15.98C39.013 16.3467 39.333 16.6367 39.7197 16.85C40.113 17.0633 40.5497 17.1733 41.0297 17.18C41.5364 17.18 41.9964 17.0533 42.4097 16.8C42.8297 16.5467 43.173 16.1967 43.4397 15.75L45.5497 16.24C45.1497 17.1267 44.5464 17.8533 43.7397 18.42C42.933 18.98 42.0297 19.26 41.0297 19.26ZM38.1897 13.14H43.8697C43.803 12.66 43.633 12.2267 43.3597 11.84C43.093 11.4467 42.7564 11.1367 42.3497 10.91C41.9497 10.6767 41.5097 10.56 41.0297 10.56C40.5564 10.56 40.1164 10.6733 39.7097 10.9C39.3097 11.1267 38.9764 11.4367 38.7097 11.83C38.4497 12.2167 38.2764 12.6533 38.1897 13.14ZM52.0063 19.26C51.0863 19.26 50.2463 19.0233 49.4863 18.55C48.7329 18.0767 48.1296 17.4433 47.6763 16.65C47.2296 15.85 47.0063 14.9667 47.0063 14C47.0063 13.2667 47.1363 12.5833 47.3963 11.95C47.6563 11.31 48.0129 10.75 48.4663 10.27C48.9263 9.78333 49.4596 9.40333 50.0663 9.13C50.6729 8.85667 51.3196 8.72 52.0063 8.72C52.9263 8.72 53.7629 8.95667 54.5163 9.43C55.2763 9.90333 55.8796 10.54 56.3263 11.34C56.7796 12.14 57.0063 13.0267 57.0063 14C57.0063 14.7267 56.8763 15.4067 56.6163 16.04C56.3563 16.6733 55.9963 17.2333 55.5363 17.72C55.0829 18.2 54.5529 18.5767 53.9463 18.85C53.3463 19.1233 52.6996 19.26 52.0063 19.26ZM52.0063 17.18C52.5596 17.18 53.0563 17.0333 53.4963 16.74C53.9363 16.4467 54.2829 16.06 54.5363 15.58C54.7963 15.0933 54.9263 14.5667 54.9263 14C54.9263 13.42 54.7929 12.8867 54.5263 12.4C54.2663 11.9133 53.9163 11.5267 53.4763 11.24C53.0363 10.9467 52.5463 10.8 52.0063 10.8C51.4596 10.8 50.9629 10.9467 50.5163 11.24C50.0763 11.5333 49.7263 11.9233 49.4663 12.41C49.2129 12.8967 49.0863 13.4267 49.0863 14C49.0863 14.5933 49.2196 15.13 49.4863 15.61C49.7529 16.09 50.1063 16.4733 50.5463 16.76C50.9929 17.04 51.4796 17.18 52.0063 17.18Z" fill="#0EA5E9"/>
</g>
<defs>
<clipPath id="clip0_44_4">
<rect width="60" height="23" fill="white"/>
</clipPath>
</defs>
</svg>
